<svg xmlns="http://www.w3.org/2000/svg" width="1073.221" height="1028.774" viewBox="0 0 1073.221 1028.774">
  <path id="path0" d="M354.321,980.054C197.534,922.514,81.315,844.431,1.181,742.81c-14.788-18.765-44.72-61.576-44.72-63.967,0-.482-1.968-3.994-4.376-7.813-37.746-59.8-73.142-177.287-59.766-198.419C-89.264,443.517.874,425.723,61.121,439.3c50.093,11.292,48.341,11.06,86.485,11.168,98.309.274,193.479-56.021,268.863-159.046,4.185-5.7,7.846-10.686,8.153-11.068,1.976-2.441,14.4,14.979,13.667,19.172C434.238,322.84,384.1,415.61,360.564,443.351c-10.52,12.4-10.661,13.708-.8,7.639,13.692-8.419,35.388-32.058,44.912-48.939,6.825-12.089,6.75-12.048,25.964-15.278,34.632-5.829,39.124,1.1,20.2,31.178-55.523,88.287-39.5,194.217,36.185,239.162,15.037,8.934,20.1,8.619,7.714-.473-83.812-61.526-80.134-182.975,8.186-270.033,16.988-16.756,17.013-13.966-.332-34.765-18.375-22.02-52.841-63.618-66.558-80.308-5.854-7.141-21.007-25.432-33.661-40.652-73.325-88.2-67.388-79.485-52.966-77.808,23.606,2.74,45.518,11.89,66.317,27.707,13.4,10.2,15.353,11.94,52.127,46.763C558,312.909,595.26,340.642,642.065,357.24c9.573,3.388,13.957,5.87,14.871,8.419.714,1.984,4.152,12.421,7.639,23.191,13.8,42.611,33.179,76.629,65.695,115.338C780.6,564.1,792.185,643.464,759.936,707.5l-6.061,12.031,6.692,6.5c35.3,34.308,35.164,94.821-.316,141.626-44.164,58.263-93.568,28.23-90.7-55.124.424-12.131.7-22.053.615-22.053s-5.729,2.284-12.554,5.065c-66.508,27.1-134.1,17.935-216.1-29.3-22.56-12.994-41.217-25.441-90.654-60.48-76.845-54.468-107.209-64.366-154.811-50.433-32.905,9.623-99.023,52.127-87.357,56.154,1.428.5,10.528,2.541,20.218,4.542C253.148,741.7,376.507,826.987,413.19,912.567c9.9,23.074-11.11,28.787-26.229,7.124-56.27-80.623-148.924-144.515-238.49-164.443-36.907-8.22-60.953-9.109-33.254-1.237,54.751,15.56,104.312,39.921,152.237,74.828,12.363,9.009,49.545,41.789,53.016,46.755,1.262,1.8,6.111,7.332,10.769,12.272,26.761,28.43,61.136,80.075,61.136,91.865,0,11.666-6.991,11.724-38.053.324M18.253,621.626" transform="translate(1002.725 985.927) rotate(166)" fill="#8f6cef" fill-rule="evenodd"/>
</svg>
